<svg xmlns="http://www.w3.org/2000/svg" version="1" xmlns:xlink="http://www.w3.org/1999/xlink" width="2000" zoomAndPan="magnify" viewBox="0 0 1500 1499.999933" height="2000" preserveAspectRatio="xMidYMid meet"><metadata><rdf:RDF xmlns:rdf="http://www.w3.org/1999/02/22-rdf-syntax-ns#" xmlns:dc="http://purl.org/dc/elements/1.1/"><rdf:Description><dc:creator>RealFaviconGenerator</dc:creator><dc:source>https://realfavicongenerator.net</dc:source></rdf:Description></rdf:RDF></metadata><defs><g></g><clipPath id="cbf8031cfc"><path d="M 348.335938 235.652344 L 1151.585938 235.652344 L 1151.585938 1139.402344 L 348.335938 1139.402344 Z M 348.335938 235.652344 " clip-rule="nonzero"></path></clipPath><clipPath id="3ee68512db"><rect x="0" width="1102" y="0" height="123"></rect></clipPath></defs><rect x="-150" width="1800" fill="#ffffff" y="-149.999993" height="1799.99992" fill-opacity="1"></rect><rect x="-150" width="1800" fill="#ffffff" y="-149.999993" height="1799.99992" fill-opacity="1"></rect><g clip-path="url(#cbf8031cfc)"><path fill="#a68c05" d="M 1126.539062 499.21875 C 1089.523438 479.382812 1052.730469 459.171875 1016.050781 438.734375 L 1009.203125 880.382812 L 1002.203125 430.949219 C 963.429688 409.28125 924.839844 387.308594 886.328125 365.191406 L 879.589844 1009.957031 L 872.777344 357.328125 C 838.683594 337.644531 804.660156 317.882812 770.714844 297.96875 L 750.015625 1139.53125 L 729.316406 298.007812 C 695.371094 317.917969 661.351562 337.71875 627.253906 357.40625 L 620.441406 1009.957031 L 613.703125 365.226562 C 575.226562 387.382812 536.601562 409.316406 497.828125 431.023438 L 490.867188 880.382812 L 483.980469 438.773438 C 447.339844 459.207031 410.546875 479.417969 373.566406 499.253906 C 370.6875 583.09375 366.945312 666.933594 361.253906 750.769531 C 355.265625 662.140625 351.375 573.550781 348.417969 484.957031 C 480.125 398.386719 614.863281 316.609375 750.015625 235.652344 C 885.167969 316.644531 1019.871094 398.425781 1151.578125 484.957031 C 1148.621094 573.550781 1144.765625 662.140625 1138.777344 750.730469 C 1133.125 666.894531 1129.421875 583.054688 1126.539062 499.21875 Z M 1126.539062 499.21875 " fill-opacity="1" fill-rule="nonzero"></path></g><g transform="matrix(1, 0, 0, 1, 208, 1139)"><g clip-path="url(#3ee68512db)"><g fill="#000000" fill-opacity="1"><g transform="translate(2.27479, 98.011046)"><g><path d="M 19.5 -38.171875 L 41.609375 -38.171875 L 41.609375 -34.203125 L 19.5 -34.203125 L 19.5 0 L 9.390625 0 L 9.390625 -69.046875 L 50.171875 -69.046875 L 50.171875 -62.0625 L 30.875 -65.296875 C 27.394531 -65.296875 23.601562 -64.703125 19.5 -63.515625 Z M 19.5 -38.171875 "></path></g></g></g><g fill="#000000" fill-opacity="1"><g transform="translate(69.436633, 98.011046)"><g><path d="M 18.984375 -69.046875 L 18.984375 0 L 9.390625 0 L 9.390625 -69.046875 Z M 18.984375 -69.046875 "></path></g></g></g><g fill="#000000" fill-opacity="1"><g transform="translate(114.803627, 98.011046)"><g><path d="M 32.015625 1.671875 L 1.046875 -69.046875 L 12.40625 -69.046875 L 35.359375 -12.515625 L 56 -69.046875 L 61.21875 -69.046875 L 33.6875 1.671875 Z M 32.015625 1.671875 "></path></g></g></g><g fill="#000000" fill-opacity="1"><g transform="translate(194.062162, 98.011046)"><g><path d="M 9.390625 0 L 9.390625 -69.046875 L 51.203125 -69.046875 L 50.171875 -62.0625 L 30.765625 -65.296875 C 27.359375 -65.296875 23.601562 -64.703125 19.5 -63.515625 L 19.5 -38.171875 L 42.65625 -38.171875 L 42.65625 -34.203125 L 19.5 -34.203125 L 19.5 -3.75 L 51.828125 -6.984375 L 50.796875 0 Z M 9.390625 0 "></path></g></g></g><g fill="#000000" fill-opacity="1"><g transform="translate(269.670842, 98.011046)"><g></g></g></g><g fill="#000000" fill-opacity="1"><g transform="translate(312.743651, 98.011046)"><g><path d="M 9.390625 0 L 9.390625 -69.046875 L 29.09375 -69.046875 C 37.300781 -69.046875 44.707031 -67.304688 51.3125 -63.828125 C 54.863281 -62.023438 57.957031 -59.765625 60.59375 -57.046875 C 63.238281 -54.335938 65.359375 -50.878906 66.953125 -46.671875 C 68.554688 -42.460938 69.359375 -37.785156 69.359375 -32.640625 C 69.359375 -25.273438 67.515625 -19.050781 63.828125 -13.96875 C 57.085938 -4.65625 46.171875 0 31.078125 0 Z M 29 -3.546875 C 37.820312 -3.546875 44.910156 -6.148438 50.265625 -11.359375 C 55.617188 -16.578125 58.296875 -24.226562 58.296875 -34.3125 C 58.296875 -42.101562 56.175781 -48.757812 51.9375 -54.28125 C 47.695312 -59.8125 42.207031 -63.484375 35.46875 -65.296875 C 29.414062 -65.296875 24.128906 -64.5625 19.609375 -63.09375 L 19.609375 -4.484375 C 21.835938 -3.859375 24.96875 -3.546875 29 -3.546875 Z M 29 -3.546875 "></path></g></g></g><g fill="#000000" fill-opacity="1"><g transform="translate(403.577461, 98.011046)"><g><path d="M 18.984375 -69.046875 L 18.984375 0 L 9.390625 0 L 9.390625 -69.046875 Z M 18.984375 -69.046875 "></path></g></g></g><g fill="#000000" fill-opacity="1"><g transform="translate(448.944455, 98.011046)"><g><path d="M 46.203125 -16.375 L 69.25 -69.046875 L 79.890625 -69.046875 L 83.75 0 L 73.109375 0 L 70.296875 -59.34375 L 69.875 -59.34375 L 43.59375 0 L 42.140625 0 L 16.375 -56.953125 L 15.953125 -56.953125 L 13.140625 0 L 8.546875 0 L 12.40625 -69.046875 L 22.109375 -69.046875 Z M 46.203125 -16.375 "></path></g></g></g><g fill="#000000" fill-opacity="1"><g transform="translate(558.653208, 98.011046)"><g><path d="M 9.390625 0 L 9.390625 -69.046875 L 51.203125 -69.046875 L 50.171875 -62.0625 L 30.765625 -65.296875 C 27.359375 -65.296875 23.601562 -64.703125 19.5 -63.515625 L 19.5 -38.171875 L 42.65625 -38.171875 L 42.65625 -34.203125 L 19.5 -34.203125 L 19.5 -3.75 L 51.828125 -6.984375 L 50.796875 0 Z M 9.390625 0 "></path></g></g></g><g fill="#000000" fill-opacity="1"><g transform="translate(634.261888, 98.011046)"><g><path d="M 61.84375 1.140625 L 60.078125 1.140625 L 14.390625 -56 L 13.96875 -56 L 13.96875 0 L 9.390625 0 L 9.390625 -69.046875 L 17.109375 -69.046875 L 56.84375 -18.875 L 57.265625 -18.875 L 57.265625 -69.046875 L 61.84375 -69.046875 Z M 61.84375 1.140625 "></path></g></g></g><g fill="#000000" fill-opacity="1"><g transform="translate(722.488592, 98.011046)"><g><path d="M 16.890625 -57.046875 C 16.890625 -53.992188 18.085938 -51.160156 20.484375 -48.546875 C 22.890625 -45.941406 25.8125 -43.644531 29.25 -41.65625 C 32.695312 -39.675781 36.125 -37.660156 39.53125 -35.609375 C 42.9375 -33.566406 45.835938 -31.050781 48.234375 -28.0625 C 50.628906 -25.070312 51.828125 -21.765625 51.828125 -18.140625 C 51.828125 -12.441406 49.722656 -7.785156 45.515625 -4.171875 C 41.316406 -0.554688 35.632812 1.25 28.46875 1.25 C 21.3125 1.25 14.222656 -0.101562 7.203125 -2.8125 L 7.203125 -7.71875 C 14.285156 -4.175781 20.3125 -2.40625 25.28125 -2.40625 C 30.257812 -2.40625 34.140625 -3.617188 36.921875 -6.046875 C 39.703125 -8.484375 41.09375 -11.859375 41.09375 -16.171875 C 41.09375 -19.085938 39.941406 -21.742188 37.640625 -24.140625 C 35.347656 -26.546875 32.566406 -28.632812 29.296875 -30.40625 C 26.035156 -32.175781 22.769531 -34 19.5 -35.875 C 16.238281 -37.75 13.457031 -40.128906 11.15625 -43.015625 C 8.863281 -45.898438 7.71875 -49.394531 7.71875 -53.5 C 7.71875 -57.601562 9.539062 -61.425781 13.1875 -64.96875 C 16.84375 -68.519531 22.285156 -70.296875 29.515625 -70.296875 C 34.242188 -70.296875 40.222656 -69.21875 47.453125 -67.0625 L 46.40625 -59.96875 C 37.019531 -64 28.988281 -66.015625 22.3125 -66.015625 C 18.695312 -64.273438 16.890625 -61.285156 16.890625 -57.046875 Z M 16.890625 -57.046875 "></path></g></g></g><g fill="#000000" fill-opacity="1"><g transform="translate(797.471675, 98.011046)"><g><path d="M 18.984375 -69.046875 L 18.984375 0 L 9.390625 0 L 9.390625 -69.046875 Z M 18.984375 -69.046875 "></path></g></g></g><g fill="#000000" fill-opacity="1"><g transform="translate(842.838628, 98.011046)"><g><path d="M 40.78125 -70.296875 C 49.820312 -70.296875 57.296875 -67.320312 63.203125 -61.375 C 69.109375 -55.4375 72.0625 -47.179688 72.0625 -36.609375 C 72.0625 -29.796875 70.878906 -23.832031 68.515625 -18.71875 C 66.160156 -13.613281 63.066406 -9.671875 59.234375 -6.890625 C 51.796875 -1.460938 43.59375 1.25 34.625 1.25 C 25.65625 1.25 18.234375 -1.753906 12.359375 -7.765625 C 6.484375 -13.785156 3.546875 -22.078125 3.546875 -32.640625 C 3.546875 -38.140625 4.328125 -43.09375 5.890625 -47.5 C 7.453125 -51.914062 9.503906 -55.515625 12.046875 -58.296875 C 14.585938 -61.078125 17.523438 -63.410156 20.859375 -65.296875 C 26.972656 -68.628906 33.613281 -70.296875 40.78125 -70.296875 Z M 19.8125 -11.890625 C 21.625 -8.828125 24.054688 -6.441406 27.109375 -4.734375 C 30.171875 -3.035156 33.703125 -2.1875 37.703125 -2.1875 C 41.703125 -2.1875 45.265625 -3.191406 48.390625 -5.203125 C 51.523438 -7.222656 53.957031 -9.867188 55.6875 -13.140625 C 59.238281 -19.679688 61.015625 -26.703125 61.015625 -34.203125 C 61.015625 -43.453125 59.171875 -50.894531 55.484375 -56.53125 C 51.378906 -62.851562 44.597656 -66.015625 35.140625 -66.015625 C 28.398438 -63.648438 23.289062 -59.582031 19.8125 -53.8125 C 16.34375 -48.039062 14.609375 -41.503906 14.609375 -34.203125 C 14.609375 -25.304688 16.34375 -17.867188 19.8125 -11.890625 Z M 19.8125 -11.890625 "></path></g></g></g><g fill="#000000" fill-opacity="1"><g transform="translate(935.445212, 98.011046)"><g><path d="M 61.84375 1.140625 L 60.078125 1.140625 L 14.390625 -56 L 13.96875 -56 L 13.96875 0 L 9.390625 0 L 9.390625 -69.046875 L 17.109375 -69.046875 L 56.84375 -18.875 L 57.265625 -18.875 L 57.265625 -69.046875 L 61.84375 -69.046875 Z M 61.84375 1.140625 "></path></g></g></g><g fill="#000000" fill-opacity="1"><g transform="translate(1023.671957, 98.011046)"><g><path d="M 16.890625 -57.046875 C 16.890625 -53.992188 18.085938 -51.160156 20.484375 -48.546875 C 22.890625 -45.941406 25.8125 -43.644531 29.25 -41.65625 C 32.695312 -39.675781 36.125 -37.660156 39.53125 -35.609375 C 42.9375 -33.566406 45.835938 -31.050781 48.234375 -28.0625 C 50.628906 -25.070312 51.828125 -21.765625 51.828125 -18.140625 C 51.828125 -12.441406 49.722656 -7.785156 45.515625 -4.171875 C 41.316406 -0.554688 35.632812 1.25 28.46875 1.25 C 21.3125 1.25 14.222656 -0.101562 7.203125 -2.8125 L 7.203125 -7.71875 C 14.285156 -4.175781 20.3125 -2.40625 25.28125 -2.40625 C 30.257812 -2.40625 34.140625 -3.617188 36.921875 -6.046875 C 39.703125 -8.484375 41.09375 -11.859375 41.09375 -16.171875 C 41.09375 -19.085938 39.941406 -21.742188 37.640625 -24.140625 C 35.347656 -26.546875 32.566406 -28.632812 29.296875 -30.40625 C 26.035156 -32.175781 22.769531 -34 19.5 -35.875 C 16.238281 -37.75 13.457031 -40.128906 11.15625 -43.015625 C 8.863281 -45.898438 7.71875 -49.394531 7.71875 -53.5 C 7.71875 -57.601562 9.539062 -61.425781 13.1875 -64.96875 C 16.84375 -68.519531 22.285156 -70.296875 29.515625 -70.296875 C 34.242188 -70.296875 40.222656 -69.21875 47.453125 -67.0625 L 46.40625 -59.96875 C 37.019531 -64 28.988281 -66.015625 22.3125 -66.015625 C 18.695312 -64.273438 16.890625 -61.285156 16.890625 -57.046875 Z M 16.890625 -57.046875 "></path></g></g></g></g></g></svg>