<svg xmlns="http://www.w3.org/2000/svg" version="1.1" xmlns:xlink="http://www.w3.org/1999/xlink" width="1000" height="1000"><metadata><rdf:RDF xmlns:rdf="http://www.w3.org/1999/02/22-rdf-syntax-ns#" xmlns:dc="http://purl.org/dc/elements/1.1/"><rdf:Description><dc:creator>RealFaviconGenerator</dc:creator><dc:source>https://realfavicongenerator.net</dc:source></rdf:Description></rdf:RDF></metadata><style>
    #light-icon {
      display: inline;
    }
    #dark-icon {
      display: none;
    }

    @media (prefers-color-scheme: dark) {
      #light-icon {
        display: none;
      }
      #dark-icon {
        display: inline;
      }
    }
  </style><g id="light-icon"><svg xmlns="http://www.w3.org/2000/svg" version="1.1" xmlns:xlink="http://www.w3.org/1999/xlink" width="1000" height="1000"><g><g transform="matrix(0.5,0,0,0.5,0,0)"><svg xmlns="http://www.w3.org/2000/svg" version="1" xmlns:xlink="http://www.w3.org/1999/xlink" width="2000" zoomAndPan="magnify" viewBox="0 0 1500 1499.999933" height="2000" preserveAspectRatio="xMidYMid meet"><defs><g></g><clipPath id="71caa2923d"><path d="M 564.695312 427.398438 L 935.195312 427.398438 L 935.195312 844.398438 L 564.695312 844.398438 Z M 564.695312 427.398438 " clip-rule="nonzero"></path></clipPath><clipPath id="6ee57df8ff"><rect x="0" width="1222" y="0" height="136"></rect></clipPath><clipPath id="188d3878cf"><rect x="0" width="412" y="0" height="58"></rect></clipPath></defs><rect x="-150" width="1800" fill="#ffffff" y="-149.999993" height="1799.99992" fill-opacity="1"></rect><rect x="-150" width="1800" fill="#ffffff" y="-149.999993" height="1799.99992" fill-opacity="1"></rect><g clip-path="url(#71caa2923d)"><path fill="#a68c05" d="M 923.714844 548.996094 C 906.636719 539.84375 889.664062 530.519531 872.742188 521.089844 L 869.582031 724.84375 L 866.351562 517.5 C 848.464844 507.5 830.660156 497.367188 812.894531 487.160156 L 809.785156 784.621094 L 806.644531 483.535156 C 790.914062 474.453125 775.214844 465.335938 759.554688 456.148438 L 750.007812 844.398438 L 740.457031 456.167969 C 724.796875 465.351562 709.101562 474.488281 693.371094 483.570312 L 690.226562 784.621094 L 687.121094 487.179688 C 669.371094 497.398438 651.550781 507.519531 633.660156 517.535156 L 630.449219 724.84375 L 627.273438 521.109375 C 610.367188 530.535156 593.394531 539.859375 576.335938 549.011719 C 575.003906 587.691406 573.277344 626.367188 570.652344 665.046875 C 567.890625 624.15625 566.09375 583.285156 564.730469 542.414062 C 625.492188 502.476562 687.65625 464.75 750.007812 427.398438 C 812.359375 464.765625 874.503906 502.492188 935.265625 542.414062 C 933.902344 583.285156 932.121094 624.15625 929.359375 665.027344 C 926.753906 626.351562 925.042969 587.671875 923.714844 548.996094 Z M 923.714844 548.996094 " fill-opacity="1" fill-rule="nonzero"></path></g><g transform="matrix(1, 0, 0, 1, 148, 861)"><g clip-path="url(#6ee57df8ff)"><g fill="#000000" fill-opacity="1"><g transform="translate(1.809649, 108.300248)"><g><path d="M 21.6875 -42.453125 L 46.28125 -42.453125 L 46.28125 -38.046875 L 21.6875 -38.046875 L 21.6875 0 L 10.4375 0 L 10.4375 -76.78125 L 55.78125 -76.78125 L 55.78125 -69.015625 L 34.328125 -72.609375 C 30.460938 -72.609375 26.25 -71.953125 21.6875 -70.640625 Z M 21.6875 -42.453125 "></path></g></g></g><g fill="#000000" fill-opacity="1"><g transform="translate(76.498456, 108.300248)"><g><path d="M 21.109375 -76.78125 L 21.109375 0 L 10.4375 0 L 10.4375 -76.78125 Z M 21.109375 -76.78125 "></path></g></g></g><g fill="#000000" fill-opacity="1"><g transform="translate(126.949821, 108.300248)"><g><path d="M 35.609375 1.859375 L 1.15625 -76.78125 L 13.796875 -76.78125 L 39.3125 -13.921875 L 62.28125 -76.78125 L 68.078125 -76.78125 L 37.46875 1.859375 Z M 35.609375 1.859375 "></path></g></g></g><g fill="#000000" fill-opacity="1"><g transform="translate(215.091019, 108.300248)"><g><path d="M 10.4375 0 L 10.4375 -76.78125 L 56.953125 -76.78125 L 55.78125 -69.015625 L 34.21875 -72.609375 C 30.425781 -72.609375 26.25 -71.953125 21.6875 -70.640625 L 21.6875 -42.453125 L 47.4375 -42.453125 L 47.4375 -38.046875 L 21.6875 -38.046875 L 21.6875 -4.171875 L 57.640625 -7.765625 L 56.484375 0 Z M 10.4375 0 "></path></g></g></g><g fill="#000000" fill-opacity="1"><g transform="translate(299.173317, 108.300248)"><g></g></g></g><g fill="#000000" fill-opacity="1"><g transform="translate(347.073383, 108.300248)"><g><path d="M 10.4375 0 L 10.4375 -76.78125 L 32.359375 -76.78125 C 41.484375 -76.78125 49.71875 -74.847656 57.0625 -70.984375 C 61.007812 -68.972656 64.453125 -66.457031 67.390625 -63.4375 C 70.328125 -60.425781 72.679688 -56.582031 74.453125 -51.90625 C 76.234375 -47.226562 77.125 -42.023438 77.125 -36.296875 C 77.125 -28.109375 75.078125 -21.191406 70.984375 -15.546875 C 63.484375 -5.179688 51.34375 0 34.5625 0 Z M 32.25 -3.9375 C 42.0625 -3.9375 49.941406 -6.835938 55.890625 -12.640625 C 61.847656 -18.441406 64.828125 -26.945312 64.828125 -38.15625 C 64.828125 -46.820312 62.46875 -54.226562 57.75 -60.375 C 53.039062 -66.519531 46.9375 -70.597656 39.4375 -72.609375 C 32.707031 -72.609375 26.832031 -71.796875 21.8125 -70.171875 L 21.8125 -4.984375 C 24.28125 -4.285156 27.757812 -3.9375 32.25 -3.9375 Z M 32.25 -3.9375 "></path></g></g></g><g fill="#000000" fill-opacity="1"><g transform="translate(448.087121, 108.300248)"><g><path d="M 21.109375 -76.78125 L 21.109375 0 L 10.4375 0 L 10.4375 -76.78125 Z M 21.109375 -76.78125 "></path></g></g></g><g fill="#000000" fill-opacity="1"><g transform="translate(498.538486, 108.300248)"><g><path d="M 51.375 -18.203125 L 77.015625 -76.78125 L 88.84375 -76.78125 L 93.140625 0 L 81.3125 0 L 78.171875 -66 L 77.703125 -66 L 48.484375 0 L 46.859375 0 L 18.203125 -63.328125 L 17.75 -63.328125 L 14.609375 0 L 9.515625 0 L 13.796875 -76.78125 L 24.59375 -76.78125 Z M 51.375 -18.203125 "></path></g></g></g><g fill="#000000" fill-opacity="1"><g transform="translate(620.54252, 108.300248)"><g><path d="M 10.4375 0 L 10.4375 -76.78125 L 56.953125 -76.78125 L 55.78125 -69.015625 L 34.21875 -72.609375 C 30.425781 -72.609375 26.25 -71.953125 21.6875 -70.640625 L 21.6875 -42.453125 L 47.4375 -42.453125 L 47.4375 -38.046875 L 21.6875 -38.046875 L 21.6875 -4.171875 L 57.640625 -7.765625 L 56.484375 0 Z M 10.4375 0 "></path></g></g></g><g fill="#000000" fill-opacity="1"><g transform="translate(704.624818, 108.300248)"><g><path d="M 68.78125 1.28125 L 66.8125 1.28125 L 16 -62.28125 L 15.546875 -62.28125 L 15.546875 0 L 10.4375 0 L 10.4375 -76.78125 L 19.015625 -76.78125 L 63.21875 -21 L 63.671875 -21 L 63.671875 -76.78125 L 68.78125 -76.78125 Z M 68.78125 1.28125 "></path></g></g></g><g fill="#000000" fill-opacity="1"><g transform="translate(802.739267, 108.300248)"><g><path d="M 18.796875 -63.4375 C 18.796875 -60.039062 20.128906 -56.890625 22.796875 -53.984375 C 25.460938 -51.085938 28.707031 -48.535156 32.53125 -46.328125 C 36.363281 -44.128906 40.171875 -41.890625 43.953125 -39.609375 C 47.742188 -37.328125 50.972656 -34.523438 53.640625 -31.203125 C 56.304688 -27.878906 57.640625 -24.207031 57.640625 -20.1875 C 57.640625 -13.84375 55.300781 -8.660156 50.625 -4.640625 C 45.945312 -0.617188 39.625 1.390625 31.65625 1.390625 C 23.695312 1.390625 15.8125 -0.113281 8 -3.125 L 8 -8.578125 C 15.882812 -4.640625 22.59375 -2.671875 28.125 -2.671875 C 33.65625 -2.671875 37.96875 -4.019531 41.0625 -6.71875 C 44.15625 -9.425781 45.703125 -13.179688 45.703125 -17.984375 C 45.703125 -21.222656 44.425781 -24.175781 41.875 -26.84375 C 39.320312 -29.519531 36.226562 -31.84375 32.59375 -33.8125 C 28.957031 -35.78125 25.320312 -37.804688 21.6875 -39.890625 C 18.050781 -41.984375 14.957031 -44.632812 12.40625 -47.84375 C 9.851562 -51.050781 8.578125 -54.9375 8.578125 -59.5 C 8.578125 -64.0625 10.609375 -68.3125 14.671875 -72.25 C 18.734375 -76.195312 24.785156 -78.171875 32.828125 -78.171875 C 38.078125 -78.171875 44.722656 -76.972656 52.765625 -74.578125 L 51.609375 -66.6875 C 41.171875 -71.175781 32.242188 -73.421875 24.828125 -73.421875 C 20.804688 -71.484375 18.796875 -68.15625 18.796875 -63.4375 Z M 18.796875 -63.4375 "></path></g></g></g><g fill="#000000" fill-opacity="1"><g transform="translate(886.125855, 108.300248)"><g><path d="M 21.109375 -76.78125 L 21.109375 0 L 10.4375 0 L 10.4375 -76.78125 Z M 21.109375 -76.78125 "></path></g></g></g><g fill="#000000" fill-opacity="1"><g transform="translate(936.577175, 108.300248)"><g><path d="M 45.34375 -78.171875 C 55.394531 -78.171875 63.707031 -74.863281 70.28125 -68.25 C 76.851562 -61.644531 80.140625 -52.460938 80.140625 -40.703125 C 80.140625 -33.128906 78.828125 -26.5 76.203125 -20.8125 C 73.578125 -15.132812 70.132812 -10.75 65.875 -7.65625 C 57.601562 -1.625 48.476562 1.390625 38.5 1.390625 C 28.53125 1.390625 20.273438 -1.953125 13.734375 -8.640625 C 7.203125 -15.328125 3.9375 -24.546875 3.9375 -36.296875 C 3.9375 -42.410156 4.804688 -47.921875 6.546875 -52.828125 C 8.285156 -57.742188 10.566406 -61.742188 13.390625 -64.828125 C 16.210938 -67.921875 19.484375 -70.515625 23.203125 -72.609375 C 30.003906 -76.316406 37.382812 -78.171875 45.34375 -78.171875 Z M 22.03125 -13.21875 C 24.039062 -9.820312 26.75 -7.175781 30.15625 -5.28125 C 33.5625 -3.382812 37.484375 -2.4375 41.921875 -2.4375 C 46.367188 -2.4375 50.332031 -3.554688 53.8125 -5.796875 C 57.289062 -8.035156 60 -10.972656 61.9375 -14.609375 C 65.875 -21.878906 67.84375 -29.691406 67.84375 -38.046875 C 67.84375 -48.328125 65.796875 -56.597656 61.703125 -62.859375 C 57.140625 -69.898438 49.601562 -73.421875 39.09375 -73.421875 C 31.59375 -70.785156 25.90625 -66.257812 22.03125 -59.84375 C 18.164062 -53.425781 16.234375 -46.160156 16.234375 -38.046875 C 16.234375 -28.148438 18.164062 -19.875 22.03125 -13.21875 Z M 22.03125 -13.21875 "></path></g></g></g><g fill="#000000" fill-opacity="1"><g transform="translate(1039.562366, 108.300248)"><g><path d="M 68.78125 1.28125 L 66.8125 1.28125 L 16 -62.28125 L 15.546875 -62.28125 L 15.546875 0 L 10.4375 0 L 10.4375 -76.78125 L 19.015625 -76.78125 L 63.21875 -21 L 63.671875 -21 L 63.671875 -76.78125 L 68.78125 -76.78125 Z M 68.78125 1.28125 "></path></g></g></g><g fill="#000000" fill-opacity="1"><g transform="translate(1137.67686, 108.300248)"><g><path d="M 18.796875 -63.4375 C 18.796875 -60.039062 20.128906 -56.890625 22.796875 -53.984375 C 25.460938 -51.085938 28.707031 -48.535156 32.53125 -46.328125 C 36.363281 -44.128906 40.171875 -41.890625 43.953125 -39.609375 C 47.742188 -37.328125 50.972656 -34.523438 53.640625 -31.203125 C 56.304688 -27.878906 57.640625 -24.207031 57.640625 -20.1875 C 57.640625 -13.84375 55.300781 -8.660156 50.625 -4.640625 C 45.945312 -0.617188 39.625 1.390625 31.65625 1.390625 C 23.695312 1.390625 15.8125 -0.113281 8 -3.125 L 8 -8.578125 C 15.882812 -4.640625 22.59375 -2.671875 28.125 -2.671875 C 33.65625 -2.671875 37.96875 -4.019531 41.0625 -6.71875 C 44.15625 -9.425781 45.703125 -13.179688 45.703125 -17.984375 C 45.703125 -21.222656 44.425781 -24.175781 41.875 -26.84375 C 39.320312 -29.519531 36.226562 -31.84375 32.59375 -33.8125 C 28.957031 -35.78125 25.320312 -37.804688 21.6875 -39.890625 C 18.050781 -41.984375 14.957031 -44.632812 12.40625 -47.84375 C 9.851562 -51.050781 8.578125 -54.9375 8.578125 -59.5 C 8.578125 -64.0625 10.609375 -68.3125 14.671875 -72.25 C 18.734375 -76.195312 24.785156 -78.171875 32.828125 -78.171875 C 38.078125 -78.171875 44.722656 -76.972656 52.765625 -74.578125 L 51.609375 -66.6875 C 41.171875 -71.175781 32.242188 -73.421875 24.828125 -73.421875 C 20.804688 -71.484375 18.796875 -68.15625 18.796875 -63.4375 Z M 18.796875 -63.4375 "></path></g></g></g></g></g><g transform="matrix(1, 0, 0, 1, 550, 1014)"><g clip-path="url(#188d3878cf)"><g fill="#a68c05" fill-opacity="1"><g transform="translate(1.607028, 45.400318)"><g><path d="M 9.03125 -15.171875 L 9.03125 0 L 4.3125 0 L 4.3125 -31.78125 L 14.6875 -31.78125 C 17.914062 -31.78125 20.5625 -31.054688 22.625 -29.609375 C 24.695312 -28.171875 25.734375 -26.273438 25.734375 -23.921875 C 25.734375 -21.578125 24.90625 -19.722656 23.25 -18.359375 C 21.601562 -16.992188 19.375 -16.054688 16.5625 -15.546875 L 29.421875 0 L 23.859375 0.671875 L 12.71875 -15.171875 Z M 9.03125 -16.609375 L 12.09375 -16.609375 C 17.851562 -16.609375 20.734375 -18.878906 20.734375 -23.421875 C 20.734375 -24.191406 20.539062 -25.054688 20.15625 -26.015625 C 19.425781 -28.035156 17.859375 -29.363281 15.453125 -30 C 13.273438 -30 11.132812 -29.726562 9.03125 -29.1875 Z M 9.03125 -16.609375 "></path></g></g></g><g fill="#a68c05" fill-opacity="1"><g transform="translate(43.367064, 45.400318)"><g><path d="M 4.3125 0 L 4.3125 -31.78125 L 23.5625 -31.78125 L 23.09375 -28.5625 L 14.15625 -30.046875 C 12.59375 -30.046875 10.863281 -29.773438 8.96875 -29.234375 L 8.96875 -17.5625 L 19.625 -17.5625 L 19.625 -15.75 L 8.96875 -15.75 L 8.96875 -1.734375 L 23.859375 -3.21875 L 23.375 0 Z M 4.3125 0 "></path></g></g></g><g fill="#a68c05" fill-opacity="1"><g transform="translate(81.479091, 45.400318)"><g><path d="M 0.484375 0 L 14.734375 -32.546875 L 15.453125 -32.546875 L 29.71875 0 L 24.484375 0 L 20.875 -8.640625 L 6.625 -8.640625 L 3.078125 0 Z M 7.34375 -10.46875 L 20.109375 -10.46875 L 13.78125 -26.015625 Z M 7.34375 -10.46875 "></path></g></g></g><g fill="#a68c05" fill-opacity="1"><g transform="translate(122.807136, 45.400318)"><g><path d="M 4.3125 0 L 4.3125 -31.78125 L 9.03125 -31.78125 L 9.03125 -2.59375 C 10.976562 -2.019531 12.546875 -1.734375 13.734375 -1.734375 L 22.421875 -3.21875 L 21.84375 0 Z M 4.3125 0 "></path></g></g></g><g fill="#a68c05" fill-opacity="1"><g transform="translate(157.319173, 45.400318)"><g></g></g></g><g fill="#a68c05" fill-opacity="1"><g transform="translate(180.455187, 45.400318)"><g><path d="M 4.3125 0 L 4.3125 -31.78125 L 23.5625 -31.78125 L 23.09375 -28.5625 L 14.15625 -30.046875 C 12.59375 -30.046875 10.863281 -29.773438 8.96875 -29.234375 L 8.96875 -17.5625 L 19.625 -17.5625 L 19.625 -15.75 L 8.96875 -15.75 L 8.96875 -1.734375 L 23.859375 -3.21875 L 23.375 0 Z M 4.3125 0 "></path></g></g></g><g fill="#a68c05" fill-opacity="1"><g transform="translate(218.567214, 45.400318)"><g><path d="M 7.78125 -26.25 C 7.78125 -24.84375 8.332031 -23.539062 9.4375 -22.34375 C 10.539062 -21.144531 11.882812 -20.085938 13.46875 -19.171875 C 15.050781 -18.265625 16.625 -17.335938 18.1875 -16.390625 C 19.757812 -15.441406 21.097656 -14.28125 22.203125 -12.90625 C 23.304688 -11.53125 23.859375 -10.015625 23.859375 -8.359375 C 23.859375 -5.734375 22.890625 -3.585938 20.953125 -1.921875 C 19.015625 -0.253906 16.394531 0.578125 13.09375 0.578125 C 9.800781 0.578125 6.539062 -0.046875 3.3125 -1.296875 L 3.3125 -3.546875 C 6.570312 -1.921875 9.347656 -1.109375 11.640625 -1.109375 C 13.929688 -1.109375 15.710938 -1.664062 16.984375 -2.78125 C 18.265625 -3.90625 18.90625 -5.457031 18.90625 -7.4375 C 18.90625 -8.78125 18.378906 -10.003906 17.328125 -11.109375 C 16.273438 -12.210938 14.992188 -13.171875 13.484375 -13.984375 C 11.984375 -14.804688 10.476562 -15.648438 8.96875 -16.515625 C 7.46875 -17.378906 6.1875 -18.472656 5.125 -19.796875 C 4.070312 -21.128906 3.546875 -22.738281 3.546875 -24.625 C 3.546875 -26.507812 4.382812 -28.269531 6.0625 -29.90625 C 7.75 -31.539062 10.253906 -32.359375 13.578125 -32.359375 C 15.753906 -32.359375 18.507812 -31.859375 21.84375 -30.859375 L 21.359375 -27.59375 C 17.035156 -29.457031 13.335938 -30.390625 10.265625 -30.390625 C 8.609375 -29.585938 7.78125 -28.207031 7.78125 -26.25 Z M 7.78125 -26.25 "></path></g></g></g><g fill="#a68c05" fill-opacity="1"><g transform="translate(256.391216, 45.400318)"><g><path d="M 15.171875 0 L 10.515625 0 L 10.515625 -29.46875 C 9.421875 -29.726562 8.332031 -29.859375 7.25 -29.859375 L 0.765625 -28.375 L 0.484375 -31.78125 L 25.203125 -31.78125 L 24.953125 -28.375 L 18.4375 -29.859375 C 17.34375 -29.859375 16.253906 -29.726562 15.171875 -29.46875 Z M 15.171875 0 "></path></g></g></g><g fill="#a68c05" fill-opacity="1"><g transform="translate(293.207222, 45.400318)"><g><path d="M 0.484375 0 L 14.734375 -32.546875 L 15.453125 -32.546875 L 29.71875 0 L 24.484375 0 L 20.875 -8.640625 L 6.625 -8.640625 L 3.078125 0 Z M 7.34375 -10.46875 L 20.109375 -10.46875 L 13.78125 -26.015625 Z M 7.34375 -10.46875 "></path></g></g></g><g fill="#a68c05" fill-opacity="1"><g transform="translate(334.535267, 45.400318)"><g><path d="M 15.171875 0 L 10.515625 0 L 10.515625 -29.46875 C 9.421875 -29.726562 8.332031 -29.859375 7.25 -29.859375 L 0.765625 -28.375 L 0.484375 -31.78125 L 25.203125 -31.78125 L 24.953125 -28.375 L 18.4375 -29.859375 C 17.34375 -29.859375 16.253906 -29.726562 15.171875 -29.46875 Z M 15.171875 0 "></path></g></g></g><g fill="#a68c05" fill-opacity="1"><g transform="translate(371.351274, 45.400318)"><g><path d="M 4.3125 0 L 4.3125 -31.78125 L 23.5625 -31.78125 L 23.09375 -28.5625 L 14.15625 -30.046875 C 12.59375 -30.046875 10.863281 -29.773438 8.96875 -29.234375 L 8.96875 -17.5625 L 19.625 -17.5625 L 19.625 -15.75 L 8.96875 -15.75 L 8.96875 -1.734375 L 23.859375 -3.21875 L 23.375 0 Z M 4.3125 0 "></path></g></g></g></g></g></svg></g></g></svg></g><g id="dark-icon"><svg xmlns="http://www.w3.org/2000/svg" version="1.1" xmlns:xlink="http://www.w3.org/1999/xlink" width="1000" height="1000"><g><g transform="matrix(0.5,0,0,0.5,0,0)"><svg xmlns="http://www.w3.org/2000/svg" version="1" xmlns:xlink="http://www.w3.org/1999/xlink" width="2000" zoomAndPan="magnify" viewBox="0 0 1500 1499.999933" height="2000" preserveAspectRatio="xMidYMid meet"><defs><g></g><clipPath id="8f50a56e08"><path d="M 564.695312 427.398438 L 935.195312 427.398438 L 935.195312 844.398438 L 564.695312 844.398438 Z M 564.695312 427.398438 " clip-rule="nonzero"></path></clipPath><clipPath id="a52cfab650"><rect x="0" width="412" y="0" height="58"></rect></clipPath><clipPath id="d07d657215"><rect x="0" width="1222" y="0" height="136"></rect></clipPath></defs><rect x="-150" width="1800" fill="#ffffff" y="-149.999993" height="1799.99992" fill-opacity="1"></rect><rect x="-150" width="1800" fill="#000000" y="-149.999993" height="1799.99992" fill-opacity="1"></rect><g clip-path="url(#8f50a56e08)"><path fill="#a68c05" d="M 923.714844 548.996094 C 906.636719 539.84375 889.664062 530.519531 872.742188 521.089844 L 869.582031 724.84375 L 866.351562 517.5 C 848.464844 507.5 830.660156 497.367188 812.894531 487.160156 L 809.785156 784.621094 L 806.644531 483.535156 C 790.914062 474.453125 775.214844 465.335938 759.554688 456.148438 L 750.007812 844.398438 L 740.457031 456.167969 C 724.796875 465.351562 709.101562 474.488281 693.371094 483.570312 L 690.226562 784.621094 L 687.121094 487.179688 C 669.371094 497.398438 651.550781 507.519531 633.660156 517.535156 L 630.449219 724.84375 L 627.273438 521.109375 C 610.367188 530.535156 593.394531 539.859375 576.335938 549.011719 C 575.003906 587.691406 573.277344 626.367188 570.652344 665.046875 C 567.890625 624.15625 566.09375 583.285156 564.730469 542.414062 C 625.492188 502.476562 687.65625 464.75 750.007812 427.398438 C 812.359375 464.765625 874.503906 502.492188 935.265625 542.414062 C 933.902344 583.285156 932.121094 624.15625 929.359375 665.027344 C 926.753906 626.351562 925.042969 587.671875 923.714844 548.996094 Z M 923.714844 548.996094 " fill-opacity="1" fill-rule="nonzero"></path></g><g transform="matrix(1, 0, 0, 1, 550, 1014)"><g clip-path="url(#a52cfab650)"><g fill="#a68c05" fill-opacity="1"><g transform="translate(1.607028, 45.400318)"><g><path d="M 9.03125 -15.171875 L 9.03125 0 L 4.3125 0 L 4.3125 -31.78125 L 14.6875 -31.78125 C 17.914062 -31.78125 20.5625 -31.054688 22.625 -29.609375 C 24.695312 -28.171875 25.734375 -26.273438 25.734375 -23.921875 C 25.734375 -21.578125 24.90625 -19.722656 23.25 -18.359375 C 21.601562 -16.992188 19.375 -16.054688 16.5625 -15.546875 L 29.421875 0 L 23.859375 0.671875 L 12.71875 -15.171875 Z M 9.03125 -16.609375 L 12.09375 -16.609375 C 17.851562 -16.609375 20.734375 -18.878906 20.734375 -23.421875 C 20.734375 -24.191406 20.539062 -25.054688 20.15625 -26.015625 C 19.425781 -28.035156 17.859375 -29.363281 15.453125 -30 C 13.273438 -30 11.132812 -29.726562 9.03125 -29.1875 Z M 9.03125 -16.609375 "></path></g></g></g><g fill="#a68c05" fill-opacity="1"><g transform="translate(43.367064, 45.400318)"><g><path d="M 4.3125 0 L 4.3125 -31.78125 L 23.5625 -31.78125 L 23.09375 -28.5625 L 14.15625 -30.046875 C 12.59375 -30.046875 10.863281 -29.773438 8.96875 -29.234375 L 8.96875 -17.5625 L 19.625 -17.5625 L 19.625 -15.75 L 8.96875 -15.75 L 8.96875 -1.734375 L 23.859375 -3.21875 L 23.375 0 Z M 4.3125 0 "></path></g></g></g><g fill="#a68c05" fill-opacity="1"><g transform="translate(81.479091, 45.400318)"><g><path d="M 0.484375 0 L 14.734375 -32.546875 L 15.453125 -32.546875 L 29.71875 0 L 24.484375 0 L 20.875 -8.640625 L 6.625 -8.640625 L 3.078125 0 Z M 7.34375 -10.46875 L 20.109375 -10.46875 L 13.78125 -26.015625 Z M 7.34375 -10.46875 "></path></g></g></g><g fill="#a68c05" fill-opacity="1"><g transform="translate(122.807136, 45.400318)"><g><path d="M 4.3125 0 L 4.3125 -31.78125 L 9.03125 -31.78125 L 9.03125 -2.59375 C 10.976562 -2.019531 12.546875 -1.734375 13.734375 -1.734375 L 22.421875 -3.21875 L 21.84375 0 Z M 4.3125 0 "></path></g></g></g><g fill="#a68c05" fill-opacity="1"><g transform="translate(157.319173, 45.400318)"><g></g></g></g><g fill="#a68c05" fill-opacity="1"><g transform="translate(180.455187, 45.400318)"><g><path d="M 4.3125 0 L 4.3125 -31.78125 L 23.5625 -31.78125 L 23.09375 -28.5625 L 14.15625 -30.046875 C 12.59375 -30.046875 10.863281 -29.773438 8.96875 -29.234375 L 8.96875 -17.5625 L 19.625 -17.5625 L 19.625 -15.75 L 8.96875 -15.75 L 8.96875 -1.734375 L 23.859375 -3.21875 L 23.375 0 Z M 4.3125 0 "></path></g></g></g><g fill="#a68c05" fill-opacity="1"><g transform="translate(218.567214, 45.400318)"><g><path d="M 7.78125 -26.25 C 7.78125 -24.84375 8.332031 -23.539062 9.4375 -22.34375 C 10.539062 -21.144531 11.882812 -20.085938 13.46875 -19.171875 C 15.050781 -18.265625 16.625 -17.335938 18.1875 -16.390625 C 19.757812 -15.441406 21.097656 -14.28125 22.203125 -12.90625 C 23.304688 -11.53125 23.859375 -10.015625 23.859375 -8.359375 C 23.859375 -5.734375 22.890625 -3.585938 20.953125 -1.921875 C 19.015625 -0.253906 16.394531 0.578125 13.09375 0.578125 C 9.800781 0.578125 6.539062 -0.046875 3.3125 -1.296875 L 3.3125 -3.546875 C 6.570312 -1.921875 9.347656 -1.109375 11.640625 -1.109375 C 13.929688 -1.109375 15.710938 -1.664062 16.984375 -2.78125 C 18.265625 -3.90625 18.90625 -5.457031 18.90625 -7.4375 C 18.90625 -8.78125 18.378906 -10.003906 17.328125 -11.109375 C 16.273438 -12.210938 14.992188 -13.171875 13.484375 -13.984375 C 11.984375 -14.804688 10.476562 -15.648438 8.96875 -16.515625 C 7.46875 -17.378906 6.1875 -18.472656 5.125 -19.796875 C 4.070312 -21.128906 3.546875 -22.738281 3.546875 -24.625 C 3.546875 -26.507812 4.382812 -28.269531 6.0625 -29.90625 C 7.75 -31.539062 10.253906 -32.359375 13.578125 -32.359375 C 15.753906 -32.359375 18.507812 -31.859375 21.84375 -30.859375 L 21.359375 -27.59375 C 17.035156 -29.457031 13.335938 -30.390625 10.265625 -30.390625 C 8.609375 -29.585938 7.78125 -28.207031 7.78125 -26.25 Z M 7.78125 -26.25 "></path></g></g></g><g fill="#a68c05" fill-opacity="1"><g transform="translate(256.391216, 45.400318)"><g><path d="M 15.171875 0 L 10.515625 0 L 10.515625 -29.46875 C 9.421875 -29.726562 8.332031 -29.859375 7.25 -29.859375 L 0.765625 -28.375 L 0.484375 -31.78125 L 25.203125 -31.78125 L 24.953125 -28.375 L 18.4375 -29.859375 C 17.34375 -29.859375 16.253906 -29.726562 15.171875 -29.46875 Z M 15.171875 0 "></path></g></g></g><g fill="#a68c05" fill-opacity="1"><g transform="translate(293.207222, 45.400318)"><g><path d="M 0.484375 0 L 14.734375 -32.546875 L 15.453125 -32.546875 L 29.71875 0 L 24.484375 0 L 20.875 -8.640625 L 6.625 -8.640625 L 3.078125 0 Z M 7.34375 -10.46875 L 20.109375 -10.46875 L 13.78125 -26.015625 Z M 7.34375 -10.46875 "></path></g></g></g><g fill="#a68c05" fill-opacity="1"><g transform="translate(334.535267, 45.400318)"><g><path d="M 15.171875 0 L 10.515625 0 L 10.515625 -29.46875 C 9.421875 -29.726562 8.332031 -29.859375 7.25 -29.859375 L 0.765625 -28.375 L 0.484375 -31.78125 L 25.203125 -31.78125 L 24.953125 -28.375 L 18.4375 -29.859375 C 17.34375 -29.859375 16.253906 -29.726562 15.171875 -29.46875 Z M 15.171875 0 "></path></g></g></g><g fill="#a68c05" fill-opacity="1"><g transform="translate(371.351274, 45.400318)"><g><path d="M 4.3125 0 L 4.3125 -31.78125 L 23.5625 -31.78125 L 23.09375 -28.5625 L 14.15625 -30.046875 C 12.59375 -30.046875 10.863281 -29.773438 8.96875 -29.234375 L 8.96875 -17.5625 L 19.625 -17.5625 L 19.625 -15.75 L 8.96875 -15.75 L 8.96875 -1.734375 L 23.859375 -3.21875 L 23.375 0 Z M 4.3125 0 "></path></g></g></g></g></g><g transform="matrix(1, 0, 0, 1, 148, 861)"><g clip-path="url(#d07d657215)"><g fill="#ffffff" fill-opacity="1"><g transform="translate(1.809649, 108.300248)"><g><path d="M 21.6875 -42.453125 L 46.28125 -42.453125 L 46.28125 -38.046875 L 21.6875 -38.046875 L 21.6875 0 L 10.4375 0 L 10.4375 -76.78125 L 55.78125 -76.78125 L 55.78125 -69.015625 L 34.328125 -72.609375 C 30.460938 -72.609375 26.25 -71.953125 21.6875 -70.640625 Z M 21.6875 -42.453125 "></path></g></g></g><g fill="#ffffff" fill-opacity="1"><g transform="translate(76.498456, 108.300248)"><g><path d="M 21.109375 -76.78125 L 21.109375 0 L 10.4375 0 L 10.4375 -76.78125 Z M 21.109375 -76.78125 "></path></g></g></g><g fill="#ffffff" fill-opacity="1"><g transform="translate(126.949821, 108.300248)"><g><path d="M 35.609375 1.859375 L 1.15625 -76.78125 L 13.796875 -76.78125 L 39.3125 -13.921875 L 62.28125 -76.78125 L 68.078125 -76.78125 L 37.46875 1.859375 Z M 35.609375 1.859375 "></path></g></g></g><g fill="#ffffff" fill-opacity="1"><g transform="translate(215.091019, 108.300248)"><g><path d="M 10.4375 0 L 10.4375 -76.78125 L 56.953125 -76.78125 L 55.78125 -69.015625 L 34.21875 -72.609375 C 30.425781 -72.609375 26.25 -71.953125 21.6875 -70.640625 L 21.6875 -42.453125 L 47.4375 -42.453125 L 47.4375 -38.046875 L 21.6875 -38.046875 L 21.6875 -4.171875 L 57.640625 -7.765625 L 56.484375 0 Z M 10.4375 0 "></path></g></g></g><g fill="#ffffff" fill-opacity="1"><g transform="translate(299.173317, 108.300248)"><g></g></g></g><g fill="#ffffff" fill-opacity="1"><g transform="translate(347.073383, 108.300248)"><g><path d="M 10.4375 0 L 10.4375 -76.78125 L 32.359375 -76.78125 C 41.484375 -76.78125 49.71875 -74.847656 57.0625 -70.984375 C 61.007812 -68.972656 64.453125 -66.457031 67.390625 -63.4375 C 70.328125 -60.425781 72.679688 -56.582031 74.453125 -51.90625 C 76.234375 -47.226562 77.125 -42.023438 77.125 -36.296875 C 77.125 -28.109375 75.078125 -21.191406 70.984375 -15.546875 C 63.484375 -5.179688 51.34375 0 34.5625 0 Z M 32.25 -3.9375 C 42.0625 -3.9375 49.941406 -6.835938 55.890625 -12.640625 C 61.847656 -18.441406 64.828125 -26.945312 64.828125 -38.15625 C 64.828125 -46.820312 62.46875 -54.226562 57.75 -60.375 C 53.039062 -66.519531 46.9375 -70.597656 39.4375 -72.609375 C 32.707031 -72.609375 26.832031 -71.796875 21.8125 -70.171875 L 21.8125 -4.984375 C 24.28125 -4.285156 27.757812 -3.9375 32.25 -3.9375 Z M 32.25 -3.9375 "></path></g></g></g><g fill="#ffffff" fill-opacity="1"><g transform="translate(448.087121, 108.300248)"><g><path d="M 21.109375 -76.78125 L 21.109375 0 L 10.4375 0 L 10.4375 -76.78125 Z M 21.109375 -76.78125 "></path></g></g></g><g fill="#ffffff" fill-opacity="1"><g transform="translate(498.538486, 108.300248)"><g><path d="M 51.375 -18.203125 L 77.015625 -76.78125 L 88.84375 -76.78125 L 93.140625 0 L 81.3125 0 L 78.171875 -66 L 77.703125 -66 L 48.484375 0 L 46.859375 0 L 18.203125 -63.328125 L 17.75 -63.328125 L 14.609375 0 L 9.515625 0 L 13.796875 -76.78125 L 24.59375 -76.78125 Z M 51.375 -18.203125 "></path></g></g></g><g fill="#ffffff" fill-opacity="1"><g transform="translate(620.54252, 108.300248)"><g><path d="M 10.4375 0 L 10.4375 -76.78125 L 56.953125 -76.78125 L 55.78125 -69.015625 L 34.21875 -72.609375 C 30.425781 -72.609375 26.25 -71.953125 21.6875 -70.640625 L 21.6875 -42.453125 L 47.4375 -42.453125 L 47.4375 -38.046875 L 21.6875 -38.046875 L 21.6875 -4.171875 L 57.640625 -7.765625 L 56.484375 0 Z M 10.4375 0 "></path></g></g></g><g fill="#ffffff" fill-opacity="1"><g transform="translate(704.624818, 108.300248)"><g><path d="M 68.78125 1.28125 L 66.8125 1.28125 L 16 -62.28125 L 15.546875 -62.28125 L 15.546875 0 L 10.4375 0 L 10.4375 -76.78125 L 19.015625 -76.78125 L 63.21875 -21 L 63.671875 -21 L 63.671875 -76.78125 L 68.78125 -76.78125 Z M 68.78125 1.28125 "></path></g></g></g><g fill="#ffffff" fill-opacity="1"><g transform="translate(802.739267, 108.300248)"><g><path d="M 18.796875 -63.4375 C 18.796875 -60.039062 20.128906 -56.890625 22.796875 -53.984375 C 25.460938 -51.085938 28.707031 -48.535156 32.53125 -46.328125 C 36.363281 -44.128906 40.171875 -41.890625 43.953125 -39.609375 C 47.742188 -37.328125 50.972656 -34.523438 53.640625 -31.203125 C 56.304688 -27.878906 57.640625 -24.207031 57.640625 -20.1875 C 57.640625 -13.84375 55.300781 -8.660156 50.625 -4.640625 C 45.945312 -0.617188 39.625 1.390625 31.65625 1.390625 C 23.695312 1.390625 15.8125 -0.113281 8 -3.125 L 8 -8.578125 C 15.882812 -4.640625 22.59375 -2.671875 28.125 -2.671875 C 33.65625 -2.671875 37.96875 -4.019531 41.0625 -6.71875 C 44.15625 -9.425781 45.703125 -13.179688 45.703125 -17.984375 C 45.703125 -21.222656 44.425781 -24.175781 41.875 -26.84375 C 39.320312 -29.519531 36.226562 -31.84375 32.59375 -33.8125 C 28.957031 -35.78125 25.320312 -37.804688 21.6875 -39.890625 C 18.050781 -41.984375 14.957031 -44.632812 12.40625 -47.84375 C 9.851562 -51.050781 8.578125 -54.9375 8.578125 -59.5 C 8.578125 -64.0625 10.609375 -68.3125 14.671875 -72.25 C 18.734375 -76.195312 24.785156 -78.171875 32.828125 -78.171875 C 38.078125 -78.171875 44.722656 -76.972656 52.765625 -74.578125 L 51.609375 -66.6875 C 41.171875 -71.175781 32.242188 -73.421875 24.828125 -73.421875 C 20.804688 -71.484375 18.796875 -68.15625 18.796875 -63.4375 Z M 18.796875 -63.4375 "></path></g></g></g><g fill="#ffffff" fill-opacity="1"><g transform="translate(886.125855, 108.300248)"><g><path d="M 21.109375 -76.78125 L 21.109375 0 L 10.4375 0 L 10.4375 -76.78125 Z M 21.109375 -76.78125 "></path></g></g></g><g fill="#ffffff" fill-opacity="1"><g transform="translate(936.577175, 108.300248)"><g><path d="M 45.34375 -78.171875 C 55.394531 -78.171875 63.707031 -74.863281 70.28125 -68.25 C 76.851562 -61.644531 80.140625 -52.460938 80.140625 -40.703125 C 80.140625 -33.128906 78.828125 -26.5 76.203125 -20.8125 C 73.578125 -15.132812 70.132812 -10.75 65.875 -7.65625 C 57.601562 -1.625 48.476562 1.390625 38.5 1.390625 C 28.53125 1.390625 20.273438 -1.953125 13.734375 -8.640625 C 7.203125 -15.328125 3.9375 -24.546875 3.9375 -36.296875 C 3.9375 -42.410156 4.804688 -47.921875 6.546875 -52.828125 C 8.285156 -57.742188 10.566406 -61.742188 13.390625 -64.828125 C 16.210938 -67.921875 19.484375 -70.515625 23.203125 -72.609375 C 30.003906 -76.316406 37.382812 -78.171875 45.34375 -78.171875 Z M 22.03125 -13.21875 C 24.039062 -9.820312 26.75 -7.175781 30.15625 -5.28125 C 33.5625 -3.382812 37.484375 -2.4375 41.921875 -2.4375 C 46.367188 -2.4375 50.332031 -3.554688 53.8125 -5.796875 C 57.289062 -8.035156 60 -10.972656 61.9375 -14.609375 C 65.875 -21.878906 67.84375 -29.691406 67.84375 -38.046875 C 67.84375 -48.328125 65.796875 -56.597656 61.703125 -62.859375 C 57.140625 -69.898438 49.601562 -73.421875 39.09375 -73.421875 C 31.59375 -70.785156 25.90625 -66.257812 22.03125 -59.84375 C 18.164062 -53.425781 16.234375 -46.160156 16.234375 -38.046875 C 16.234375 -28.148438 18.164062 -19.875 22.03125 -13.21875 Z M 22.03125 -13.21875 "></path></g></g></g><g fill="#ffffff" fill-opacity="1"><g transform="translate(1039.562366, 108.300248)"><g><path d="M 68.78125 1.28125 L 66.8125 1.28125 L 16 -62.28125 L 15.546875 -62.28125 L 15.546875 0 L 10.4375 0 L 10.4375 -76.78125 L 19.015625 -76.78125 L 63.21875 -21 L 63.671875 -21 L 63.671875 -76.78125 L 68.78125 -76.78125 Z M 68.78125 1.28125 "></path></g></g></g><g fill="#ffffff" fill-opacity="1"><g transform="translate(1137.67686, 108.300248)"><g><path d="M 18.796875 -63.4375 C 18.796875 -60.039062 20.128906 -56.890625 22.796875 -53.984375 C 25.460938 -51.085938 28.707031 -48.535156 32.53125 -46.328125 C 36.363281 -44.128906 40.171875 -41.890625 43.953125 -39.609375 C 47.742188 -37.328125 50.972656 -34.523438 53.640625 -31.203125 C 56.304688 -27.878906 57.640625 -24.207031 57.640625 -20.1875 C 57.640625 -13.84375 55.300781 -8.660156 50.625 -4.640625 C 45.945312 -0.617188 39.625 1.390625 31.65625 1.390625 C 23.695312 1.390625 15.8125 -0.113281 8 -3.125 L 8 -8.578125 C 15.882812 -4.640625 22.59375 -2.671875 28.125 -2.671875 C 33.65625 -2.671875 37.96875 -4.019531 41.0625 -6.71875 C 44.15625 -9.425781 45.703125 -13.179688 45.703125 -17.984375 C 45.703125 -21.222656 44.425781 -24.175781 41.875 -26.84375 C 39.320312 -29.519531 36.226562 -31.84375 32.59375 -33.8125 C 28.957031 -35.78125 25.320312 -37.804688 21.6875 -39.890625 C 18.050781 -41.984375 14.957031 -44.632812 12.40625 -47.84375 C 9.851562 -51.050781 8.578125 -54.9375 8.578125 -59.5 C 8.578125 -64.0625 10.609375 -68.3125 14.671875 -72.25 C 18.734375 -76.195312 24.785156 -78.171875 32.828125 -78.171875 C 38.078125 -78.171875 44.722656 -76.972656 52.765625 -74.578125 L 51.609375 -66.6875 C 41.171875 -71.175781 32.242188 -73.421875 24.828125 -73.421875 C 20.804688 -71.484375 18.796875 -68.15625 18.796875 -63.4375 Z M 18.796875 -63.4375 "></path></g></g></g></g></g></svg></g></g></svg></g></svg>