<svg xmlns="http://www.w3.org/2000/svg" xmlns:xlink="http://www.w3.org/1999/xlink" viewBox="215 621 1030 258" preserveAspectRatio="xMidYMid meet" version="1.0"><defs><g/><clipPath id="cd06796ed0"><path d="M 220.085938 626.0625 L 440.585938 626.0625 L 440.585938 873.5625 L 220.085938 873.5625 Z M 220.085938 626.0625 " clip-rule="nonzero"/></clipPath><clipPath id="2524db6bfb"><rect x="0" width="727" y="0" height="82"/></clipPath><clipPath id="d4d1789aa6"><rect x="0" width="412" y="0" height="58"/></clipPath></defs><g clip-path="url(#cd06796ed0)"><path fill="#a68c05" d="M 433.488281 698.339844 C 423.335938 692.898438 413.246094 687.355469 403.191406 681.753906 L 401.3125 802.863281 L 399.390625 679.617188 C 388.757812 673.675781 378.175781 667.648438 367.617188 661.585938 L 365.769531 838.394531 L 363.902344 659.429688 C 354.550781 654.03125 345.222656 648.613281 335.914062 643.152344 L 330.238281 873.925781 L 324.5625 643.160156 C 315.253906 648.621094 305.921875 654.050781 296.574219 659.449219 L 294.703125 838.394531 L 292.855469 661.59375 C 282.304688 667.671875 271.714844 673.683594 261.082031 679.636719 L 259.171875 802.863281 L 257.285156 681.761719 C 247.234375 687.367188 237.148438 692.910156 227.007812 698.347656 C 226.214844 721.339844 225.191406 744.328125 223.628906 767.320312 C 221.988281 743.015625 220.921875 718.722656 220.109375 694.429688 C 256.226562 670.6875 293.175781 648.261719 330.238281 626.0625 C 367.296875 648.273438 404.238281 670.699219 440.355469 694.429688 C 439.542969 718.722656 438.484375 743.015625 436.84375 767.308594 C 435.292969 744.320312 434.277344 721.328125 433.488281 698.339844 Z M 433.488281 698.339844 " fill-opacity="1" fill-rule="nonzero"/></g><g transform="matrix(1, 0, 0, 1, 513, 680)"><g clip-path="url(#2524db6bfb)"><g fill="#000000" fill-opacity="1"><g transform="translate(0.966764, 64.98239)"><g><path d="M 12.890625 -25.234375 L 27.5 -25.234375 L 27.5 -22.609375 L 12.890625 -22.609375 L 12.890625 0 L 6.203125 0 L 6.203125 -45.640625 L 33.15625 -45.640625 L 33.15625 -41.015625 L 20.40625 -43.15625 C 18.101562 -43.15625 15.597656 -42.765625 12.890625 -41.984375 Z M 12.890625 -25.234375 "/></g></g></g><g fill="#000000" fill-opacity="1"><g transform="translate(45.363445, 64.98239)"><g><path d="M 12.546875 -45.640625 L 12.546875 0 L 6.203125 0 L 6.203125 -45.640625 Z M 12.546875 -45.640625 "/></g></g></g><g fill="#000000" fill-opacity="1"><g transform="translate(75.352854, 64.98239)"><g><path d="M 21.15625 1.109375 L 0.6875 -45.640625 L 8.203125 -45.640625 L 23.375 -8.265625 L 37.015625 -45.640625 L 40.46875 -45.640625 L 22.265625 1.109375 Z M 21.15625 1.109375 "/></g></g></g><g fill="#000000" fill-opacity="1"><g transform="translate(127.745935, 64.98239)"><g><path d="M 6.203125 0 L 6.203125 -45.640625 L 33.84375 -45.640625 L 33.15625 -41.015625 L 20.34375 -43.15625 C 18.082031 -43.15625 15.597656 -42.765625 12.890625 -41.984375 L 12.890625 -25.234375 L 28.203125 -25.234375 L 28.203125 -22.609375 L 12.890625 -22.609375 L 12.890625 -2.484375 L 34.265625 -4.625 L 33.578125 0 Z M 6.203125 0 "/></g></g></g><g fill="#000000" fill-opacity="1"><g transform="translate(177.726315, 64.98239)"><g/></g></g><g fill="#000000" fill-opacity="1"><g transform="translate(206.199176, 64.98239)"><g><path d="M 6.203125 0 L 6.203125 -45.640625 L 19.234375 -45.640625 C 24.660156 -45.640625 29.554688 -44.488281 33.921875 -42.1875 C 36.265625 -40.988281 38.304688 -39.492188 40.046875 -37.703125 C 41.796875 -35.910156 43.195312 -33.625 44.25 -30.84375 C 45.3125 -28.0625 45.84375 -24.972656 45.84375 -21.578125 C 45.84375 -16.703125 44.625 -12.585938 42.1875 -9.234375 C 37.726562 -3.078125 30.515625 0 20.546875 0 Z M 19.171875 -2.34375 C 25.003906 -2.34375 29.6875 -4.066406 33.21875 -7.515625 C 36.757812 -10.960938 38.53125 -16.019531 38.53125 -22.6875 C 38.53125 -27.832031 37.128906 -32.226562 34.328125 -35.875 C 31.523438 -39.53125 27.894531 -41.957031 23.4375 -43.15625 C 19.4375 -43.15625 15.941406 -42.671875 12.953125 -41.703125 L 12.953125 -2.96875 C 14.429688 -2.550781 16.503906 -2.34375 19.171875 -2.34375 Z M 19.171875 -2.34375 "/></g></g></g><g fill="#000000" fill-opacity="1"><g transform="translate(266.24398, 64.98239)"><g><path d="M 12.546875 -45.640625 L 12.546875 0 L 6.203125 0 L 6.203125 -45.640625 Z M 12.546875 -45.640625 "/></g></g></g><g fill="#000000" fill-opacity="1"><g transform="translate(296.233388, 64.98239)"><g><path d="M 30.546875 -10.828125 L 45.78125 -45.640625 L 52.8125 -45.640625 L 55.359375 0 L 48.328125 0 L 46.46875 -39.21875 L 46.1875 -39.21875 L 28.8125 0 L 27.84375 0 L 10.828125 -37.640625 L 10.546875 -37.640625 L 8.6875 0 L 5.65625 0 L 8.203125 -45.640625 L 14.609375 -45.640625 Z M 30.546875 -10.828125 "/></g></g></g><g fill="#000000" fill-opacity="1"><g transform="translate(368.755289, 64.98239)"><g><path d="M 6.203125 0 L 6.203125 -45.640625 L 33.84375 -45.640625 L 33.15625 -41.015625 L 20.34375 -43.15625 C 18.082031 -43.15625 15.597656 -42.765625 12.890625 -41.984375 L 12.890625 -25.234375 L 28.203125 -25.234375 L 28.203125 -22.609375 L 12.890625 -22.609375 L 12.890625 -2.484375 L 34.265625 -4.625 L 33.578125 0 Z M 6.203125 0 "/></g></g></g><g fill="#000000" fill-opacity="1"><g transform="translate(418.735669, 64.98239)"><g><path d="M 40.875 0.765625 L 39.703125 0.765625 L 9.515625 -37.015625 L 9.234375 -37.015625 L 9.234375 0 L 6.203125 0 L 6.203125 -45.640625 L 11.3125 -45.640625 L 37.578125 -12.484375 L 37.84375 -12.484375 L 37.84375 -45.640625 L 40.875 -45.640625 Z M 40.875 0.765625 "/></g></g></g><g fill="#000000" fill-opacity="1"><g transform="translate(477.057071, 64.98239)"><g><path d="M 11.171875 -37.703125 C 11.171875 -35.679688 11.960938 -33.804688 13.546875 -32.078125 C 15.128906 -30.359375 17.054688 -28.84375 19.328125 -27.53125 C 21.609375 -26.226562 23.875 -24.898438 26.125 -23.546875 C 28.375 -22.191406 30.289062 -20.523438 31.875 -18.546875 C 33.46875 -16.566406 34.265625 -14.382812 34.265625 -12 C 34.265625 -8.226562 32.875 -5.144531 30.09375 -2.75 C 27.3125 -0.363281 23.550781 0.828125 18.8125 0.828125 C 14.082031 0.828125 9.394531 -0.0664062 4.75 -1.859375 L 4.75 -5.09375 C 9.4375 -2.75 13.421875 -1.578125 16.703125 -1.578125 C 19.992188 -1.578125 22.554688 -2.378906 24.390625 -3.984375 C 26.234375 -5.597656 27.15625 -7.832031 27.15625 -10.6875 C 27.15625 -12.613281 26.394531 -14.367188 24.875 -15.953125 C 23.363281 -17.546875 21.523438 -18.925781 19.359375 -20.09375 C 17.203125 -21.269531 15.046875 -22.476562 12.890625 -23.71875 C 10.734375 -24.957031 8.894531 -26.53125 7.375 -28.4375 C 5.851562 -30.34375 5.09375 -32.648438 5.09375 -35.359375 C 5.09375 -38.078125 6.300781 -40.609375 8.71875 -42.953125 C 11.132812 -45.296875 14.734375 -46.46875 19.515625 -46.46875 C 22.640625 -46.46875 26.585938 -45.753906 31.359375 -44.328125 L 30.671875 -39.640625 C 24.472656 -42.304688 19.164062 -43.640625 14.75 -43.640625 C 12.363281 -42.484375 11.171875 -40.503906 11.171875 -37.703125 Z M 11.171875 -37.703125 "/></g></g></g><g fill="#000000" fill-opacity="1"><g transform="translate(526.623907, 64.98239)"><g><path d="M 12.546875 -45.640625 L 12.546875 0 L 6.203125 0 L 6.203125 -45.640625 Z M 12.546875 -45.640625 "/></g></g></g><g fill="#000000" fill-opacity="1"><g transform="translate(556.613289, 64.98239)"><g><path d="M 26.953125 -46.46875 C 32.929688 -46.46875 37.875 -44.5 41.78125 -40.5625 C 45.6875 -36.632812 47.640625 -31.179688 47.640625 -24.203125 C 47.640625 -19.691406 46.859375 -15.75 45.296875 -12.375 C 43.734375 -9 41.6875 -6.390625 39.15625 -4.546875 C 34.238281 -0.960938 28.816406 0.828125 22.890625 0.828125 C 16.960938 0.828125 12.054688 -1.15625 8.171875 -5.125 C 4.285156 -9.101562 2.34375 -14.585938 2.34375 -21.578125 C 2.34375 -25.210938 2.859375 -28.488281 3.890625 -31.40625 C 4.929688 -34.320312 6.289062 -36.695312 7.96875 -38.53125 C 9.644531 -40.375 11.582031 -41.914062 13.78125 -43.15625 C 17.832031 -45.363281 22.222656 -46.46875 26.953125 -46.46875 Z M 13.09375 -7.859375 C 14.289062 -5.835938 15.898438 -4.265625 17.921875 -3.140625 C 19.941406 -2.015625 22.273438 -1.453125 24.921875 -1.453125 C 27.566406 -1.453125 29.921875 -2.117188 31.984375 -3.453125 C 34.054688 -4.785156 35.664062 -6.53125 36.8125 -8.6875 C 39.15625 -13.007812 40.328125 -17.648438 40.328125 -22.609375 C 40.328125 -28.722656 39.109375 -33.640625 36.671875 -37.359375 C 33.960938 -41.546875 29.484375 -43.640625 23.234375 -43.640625 C 18.773438 -42.078125 15.394531 -39.382812 13.09375 -35.5625 C 10.800781 -31.75 9.65625 -27.429688 9.65625 -22.609375 C 9.65625 -16.722656 10.800781 -11.804688 13.09375 -7.859375 Z M 13.09375 -7.859375 "/></g></g></g><g fill="#000000" fill-opacity="1"><g transform="translate(617.829968, 64.98239)"><g><path d="M 40.875 0.765625 L 39.703125 0.765625 L 9.515625 -37.015625 L 9.234375 -37.015625 L 9.234375 0 L 6.203125 0 L 6.203125 -45.640625 L 11.3125 -45.640625 L 37.578125 -12.484375 L 37.84375 -12.484375 L 37.84375 -45.640625 L 40.875 -45.640625 Z M 40.875 0.765625 "/></g></g></g><g fill="#000000" fill-opacity="1"><g transform="translate(676.151396, 64.98239)"><g><path d="M 11.171875 -37.703125 C 11.171875 -35.679688 11.960938 -33.804688 13.546875 -32.078125 C 15.128906 -30.359375 17.054688 -28.84375 19.328125 -27.53125 C 21.609375 -26.226562 23.875 -24.898438 26.125 -23.546875 C 28.375 -22.191406 30.289062 -20.523438 31.875 -18.546875 C 33.46875 -16.566406 34.265625 -14.382812 34.265625 -12 C 34.265625 -8.226562 32.875 -5.144531 30.09375 -2.75 C 27.3125 -0.363281 23.550781 0.828125 18.8125 0.828125 C 14.082031 0.828125 9.394531 -0.0664062 4.75 -1.859375 L 4.75 -5.09375 C 9.4375 -2.75 13.421875 -1.578125 16.703125 -1.578125 C 19.992188 -1.578125 22.554688 -2.378906 24.390625 -3.984375 C 26.234375 -5.597656 27.15625 -7.832031 27.15625 -10.6875 C 27.15625 -12.613281 26.394531 -14.367188 24.875 -15.953125 C 23.363281 -17.546875 21.523438 -18.925781 19.359375 -20.09375 C 17.203125 -21.269531 15.046875 -22.476562 12.890625 -23.71875 C 10.734375 -24.957031 8.894531 -26.53125 7.375 -28.4375 C 5.851562 -30.34375 5.09375 -32.648438 5.09375 -35.359375 C 5.09375 -38.078125 6.300781 -40.609375 8.71875 -42.953125 C 11.132812 -45.296875 14.734375 -46.46875 19.515625 -46.46875 C 22.640625 -46.46875 26.585938 -45.753906 31.359375 -44.328125 L 30.671875 -39.640625 C 24.472656 -42.304688 19.164062 -43.640625 14.75 -43.640625 C 12.363281 -42.484375 11.171875 -40.503906 11.171875 -37.703125 Z M 11.171875 -37.703125 "/></g></g></g></g></g><g transform="matrix(1, 0, 0, 1, 671, 761)"><g clip-path="url(#d4d1789aa6)"><g fill="#a68c05" fill-opacity="1"><g transform="translate(1.340258, 45.25284)"><g><path d="M 9.03125 -15.171875 L 9.03125 0 L 4.3125 0 L 4.3125 -31.78125 L 14.6875 -31.78125 C 17.914062 -31.78125 20.5625 -31.054688 22.625 -29.609375 C 24.695312 -28.171875 25.734375 -26.273438 25.734375 -23.921875 C 25.734375 -21.578125 24.90625 -19.722656 23.25 -18.359375 C 21.601562 -16.992188 19.375 -16.054688 16.5625 -15.546875 L 29.421875 0 L 23.859375 0.671875 L 12.71875 -15.171875 Z M 9.03125 -16.609375 L 12.09375 -16.609375 C 17.851562 -16.609375 20.734375 -18.878906 20.734375 -23.421875 C 20.734375 -24.191406 20.539062 -25.054688 20.15625 -26.015625 C 19.425781 -28.035156 17.859375 -29.363281 15.453125 -30 C 13.273438 -30 11.132812 -29.726562 9.03125 -29.1875 Z M 9.03125 -16.609375 "/></g></g></g><g fill="#a68c05" fill-opacity="1"><g transform="translate(43.100295, 45.25284)"><g><path d="M 4.3125 0 L 4.3125 -31.78125 L 23.5625 -31.78125 L 23.09375 -28.5625 L 14.15625 -30.046875 C 12.59375 -30.046875 10.863281 -29.773438 8.96875 -29.234375 L 8.96875 -17.5625 L 19.625 -17.5625 L 19.625 -15.75 L 8.96875 -15.75 L 8.96875 -1.734375 L 23.859375 -3.21875 L 23.375 0 Z M 4.3125 0 "/></g></g></g><g fill="#a68c05" fill-opacity="1"><g transform="translate(81.212322, 45.25284)"><g><path d="M 0.484375 0 L 14.734375 -32.546875 L 15.453125 -32.546875 L 29.71875 0 L 24.484375 0 L 20.875 -8.640625 L 6.625 -8.640625 L 3.078125 0 Z M 7.34375 -10.46875 L 20.109375 -10.46875 L 13.78125 -26.015625 Z M 7.34375 -10.46875 "/></g></g></g><g fill="#a68c05" fill-opacity="1"><g transform="translate(122.540367, 45.25284)"><g><path d="M 4.3125 0 L 4.3125 -31.78125 L 9.03125 -31.78125 L 9.03125 -2.59375 C 10.976562 -2.019531 12.546875 -1.734375 13.734375 -1.734375 L 22.421875 -3.21875 L 21.84375 0 Z M 4.3125 0 "/></g></g></g><g fill="#a68c05" fill-opacity="1"><g transform="translate(157.052403, 45.25284)"><g/></g></g><g fill="#a68c05" fill-opacity="1"><g transform="translate(180.188418, 45.25284)"><g><path d="M 4.3125 0 L 4.3125 -31.78125 L 23.5625 -31.78125 L 23.09375 -28.5625 L 14.15625 -30.046875 C 12.59375 -30.046875 10.863281 -29.773438 8.96875 -29.234375 L 8.96875 -17.5625 L 19.625 -17.5625 L 19.625 -15.75 L 8.96875 -15.75 L 8.96875 -1.734375 L 23.859375 -3.21875 L 23.375 0 Z M 4.3125 0 "/></g></g></g><g fill="#a68c05" fill-opacity="1"><g transform="translate(218.300444, 45.25284)"><g><path d="M 7.78125 -26.25 C 7.78125 -24.84375 8.332031 -23.539062 9.4375 -22.34375 C 10.539062 -21.144531 11.882812 -20.085938 13.46875 -19.171875 C 15.050781 -18.265625 16.625 -17.335938 18.1875 -16.390625 C 19.757812 -15.441406 21.097656 -14.28125 22.203125 -12.90625 C 23.304688 -11.53125 23.859375 -10.015625 23.859375 -8.359375 C 23.859375 -5.734375 22.890625 -3.585938 20.953125 -1.921875 C 19.015625 -0.253906 16.394531 0.578125 13.09375 0.578125 C 9.800781 0.578125 6.539062 -0.046875 3.3125 -1.296875 L 3.3125 -3.546875 C 6.570312 -1.921875 9.347656 -1.109375 11.640625 -1.109375 C 13.929688 -1.109375 15.710938 -1.664062 16.984375 -2.78125 C 18.265625 -3.90625 18.90625 -5.457031 18.90625 -7.4375 C 18.90625 -8.78125 18.378906 -10.003906 17.328125 -11.109375 C 16.273438 -12.210938 14.992188 -13.171875 13.484375 -13.984375 C 11.984375 -14.804688 10.476562 -15.648438 8.96875 -16.515625 C 7.46875 -17.378906 6.1875 -18.472656 5.125 -19.796875 C 4.070312 -21.128906 3.546875 -22.738281 3.546875 -24.625 C 3.546875 -26.507812 4.382812 -28.269531 6.0625 -29.90625 C 7.75 -31.539062 10.253906 -32.359375 13.578125 -32.359375 C 15.753906 -32.359375 18.507812 -31.859375 21.84375 -30.859375 L 21.359375 -27.59375 C 17.035156 -29.457031 13.335938 -30.390625 10.265625 -30.390625 C 8.609375 -29.585938 7.78125 -28.207031 7.78125 -26.25 Z M 7.78125 -26.25 "/></g></g></g><g fill="#a68c05" fill-opacity="1"><g transform="translate(256.124446, 45.25284)"><g><path d="M 15.171875 0 L 10.515625 0 L 10.515625 -29.46875 C 9.421875 -29.726562 8.332031 -29.859375 7.25 -29.859375 L 0.765625 -28.375 L 0.484375 -31.78125 L 25.203125 -31.78125 L 24.953125 -28.375 L 18.4375 -29.859375 C 17.34375 -29.859375 16.253906 -29.726562 15.171875 -29.46875 Z M 15.171875 0 "/></g></g></g><g fill="#a68c05" fill-opacity="1"><g transform="translate(292.940453, 45.25284)"><g><path d="M 0.484375 0 L 14.734375 -32.546875 L 15.453125 -32.546875 L 29.71875 0 L 24.484375 0 L 20.875 -8.640625 L 6.625 -8.640625 L 3.078125 0 Z M 7.34375 -10.46875 L 20.109375 -10.46875 L 13.78125 -26.015625 Z M 7.34375 -10.46875 "/></g></g></g><g fill="#a68c05" fill-opacity="1"><g transform="translate(334.268498, 45.25284)"><g><path d="M 15.171875 0 L 10.515625 0 L 10.515625 -29.46875 C 9.421875 -29.726562 8.332031 -29.859375 7.25 -29.859375 L 0.765625 -28.375 L 0.484375 -31.78125 L 25.203125 -31.78125 L 24.953125 -28.375 L 18.4375 -29.859375 C 17.34375 -29.859375 16.253906 -29.726562 15.171875 -29.46875 Z M 15.171875 0 "/></g></g></g><g fill="#a68c05" fill-opacity="1"><g transform="translate(371.084504, 45.25284)"><g><path d="M 4.3125 0 L 4.3125 -31.78125 L 23.5625 -31.78125 L 23.09375 -28.5625 L 14.15625 -30.046875 C 12.59375 -30.046875 10.863281 -29.773438 8.96875 -29.234375 L 8.96875 -17.5625 L 19.625 -17.5625 L 19.625 -15.75 L 8.96875 -15.75 L 8.96875 -1.734375 L 23.859375 -3.21875 L 23.375 0 Z M 4.3125 0 "/></g></g></g></g></g></svg>